<svg id="Capa_1" enable-background="new 0 0 512 512" height="512" viewBox="0 0 512 512" width="512" xmlns="http://www.w3.org/2000/svg"><g><path fill="#007bff" d="m512 371c0-24.813-20.187-45-45-45h-26.19c1.665-4.695 2.58-9.741 2.58-15v-48.664l4.105-2.37c21.488-12.406 28.877-39.982 16.471-61.471-7.793-13.499-21.572-21.429-36.067-22.388-8.324-13.557-19.633-25.096-33.145-33.708-11.143-7.102-23.455-11.973-36.316-14.464 10.349-12.86 16.562-29.181 16.562-46.935 0-41.355-33.645-75-75-75s-75 33.645-75 75c0 17.519 6.054 33.642 16.159 46.422-49.728 8.245-87.769 51.549-87.769 103.578v40c0 9.005 2.189 17.504 6.043 25.014-16.164.151-30.818 6.722-41.532 17.287-11.8-16.509-31.108-27.301-52.901-27.301-35.841 0-65 29.159-65 65 0 18.605 7.87 35.397 20.44 47.257-12.457 10.091-20.44 25.499-20.44 42.743v50c0 8.284 6.716 15 15 15h482c8.284 0 15-6.716 15-15v-50c0-14.261-5.458-27.27-14.392-37.053 8.844-8.223 14.392-19.947 14.392-32.947zm-98.61-60c0 8.271-6.729 15-15 15s-15-6.729-15-15c0-.013-.002-.026-.002-.039v-13.983l30.002-17.322zm-113.39-275c24.813 0 45 20.187 45 45s-20.187 45-45 45-45-20.187-45-45 20.187-45 45-45zm-116.61 195c0-41.355 33.645-75 75-75h80c23.597 0 45.152 10.769 59.179 28.869l-81.676 47.156c-5.067 2.925-9.419 6.8-12.912 11.319-7.075-4.636-15.521-7.343-24.593-7.343h-34.998v-15c0-8.284-6.716-15-15-15s-15 6.716-15 15v30c0 8.284 6.716 15 15 15h49.998c8.271 0 15 6.729 15 15s-6.729 15-15 15h-69.998c-13.785 0-25-11.215-25-25zm-23.39 95h148.388c8.284 0 15-6.716 15-15 0 0 .128-39.321.129-39.986.005-5.482 2.763-10.345 7.376-13.009l86.603-50c7.163-4.137 16.354-1.674 20.49 5.49 4.136 7.163 1.673 16.354-5.49 20.49l-71.607 41.343c-4.641 2.68-7.5 7.631-7.5 12.99v52.682c0 8.284 6.716 15 15 15h98.611c8.271 0 15 6.729 15 15s-6.729 15-15 15h-307c-16.542 0-30-13.458-30-30s13.458-30 30-30zm-95-10c19.299 0 35 15.701 35 35s-15.701 35-35 35-35-15.701-35-35 15.701-35 35-35zm417 160h-452v-35c0-13.785 11.215-25 25-25h402c13.785 0 25 11.215 25 25z"/></g></svg>